<mxfile host="app.diagrams.net" modified="2024-03-23T06:01:03.047Z" agent="Mozilla/5.0 (Windows NT 10.0; Win64; x64) AppleWebKit/537.36 (KHTML, like Gecko) Chrome/122.0.0.0 Safari/537.36" version="24.0.8" etag="-Lvi5c-ZrjY3DFzNxr9B" type="device">
  <diagram id="gRbLWOHv3P2ziv0VzTOS" name="PÃ¡gina-1">
    <mxGraphModel dx="1434" dy="1884" grid="1" gridSize="10" guides="1" tooltips="1" connect="1" arrows="1" fold="1" page="1" pageScale="1" pageWidth="850" pageHeight="1100" math="0" shadow="0">
      <root>
        <mxCell id="0" />
        <mxCell id="1" parent="0" />
        <mxCell id="Y3QIFnwMC54fJHDvTTTl-5" style="edgeStyle=orthogonalEdgeStyle;rounded=0;orthogonalLoop=1;jettySize=auto;html=1;entryX=1;entryY=0.5;entryDx=0;entryDy=0;endArrow=none;endFill=0;" edge="1" parent="1" source="Y3QIFnwMC54fJHDvTTTl-1" target="Y3QIFnwMC54fJHDvTTTl-2">
          <mxGeometry relative="1" as="geometry" />
        </mxCell>
        <mxCell id="Y3QIFnwMC54fJHDvTTTl-6" style="edgeStyle=orthogonalEdgeStyle;rounded=0;orthogonalLoop=1;jettySize=auto;html=1;endArrow=none;endFill=0;" edge="1" parent="1" source="Y3QIFnwMC54fJHDvTTTl-1" target="Y3QIFnwMC54fJHDvTTTl-3">
          <mxGeometry relative="1" as="geometry" />
        </mxCell>
        <mxCell id="Y3QIFnwMC54fJHDvTTTl-7" style="edgeStyle=orthogonalEdgeStyle;rounded=0;orthogonalLoop=1;jettySize=auto;html=1;entryX=1;entryY=0.5;entryDx=0;entryDy=0;endArrow=none;endFill=0;" edge="1" parent="1" source="Y3QIFnwMC54fJHDvTTTl-1" target="Y3QIFnwMC54fJHDvTTTl-4">
          <mxGeometry relative="1" as="geometry" />
        </mxCell>
        <mxCell id="Y3QIFnwMC54fJHDvTTTl-9" style="edgeStyle=orthogonalEdgeStyle;rounded=0;orthogonalLoop=1;jettySize=auto;html=1;" edge="1" parent="1" source="Y3QIFnwMC54fJHDvTTTl-1" target="Y3QIFnwMC54fJHDvTTTl-8">
          <mxGeometry relative="1" as="geometry" />
        </mxCell>
        <mxCell id="Y3QIFnwMC54fJHDvTTTl-1" value="tienda" style="whiteSpace=wrap;html=1;align=center;" vertex="1" parent="1">
          <mxGeometry x="160" y="200" width="100" height="40" as="geometry" />
        </mxCell>
        <mxCell id="Y3QIFnwMC54fJHDvTTTl-2" value="ubicacion" style="ellipse;whiteSpace=wrap;html=1;align=center;" vertex="1" parent="1">
          <mxGeometry y="120" width="100" height="40" as="geometry" />
        </mxCell>
        <mxCell id="Y3QIFnwMC54fJHDvTTTl-3" value="nombre-tienda" style="ellipse;whiteSpace=wrap;html=1;align=center;" vertex="1" parent="1">
          <mxGeometry y="190" width="100" height="40" as="geometry" />
        </mxCell>
        <mxCell id="Y3QIFnwMC54fJHDvTTTl-4" value="ID-tienda" style="ellipse;whiteSpace=wrap;html=1;align=center;fontStyle=4;" vertex="1" parent="1">
          <mxGeometry y="260" width="100" height="40" as="geometry" />
        </mxCell>
        <mxCell id="Y3QIFnwMC54fJHDvTTTl-13" style="edgeStyle=orthogonalEdgeStyle;rounded=0;orthogonalLoop=1;jettySize=auto;html=1;entryX=0;entryY=0.5;entryDx=0;entryDy=0;" edge="1" parent="1" source="Y3QIFnwMC54fJHDvTTTl-8" target="Y3QIFnwMC54fJHDvTTTl-11">
          <mxGeometry relative="1" as="geometry" />
        </mxCell>
        <mxCell id="Y3QIFnwMC54fJHDvTTTl-14" style="edgeStyle=orthogonalEdgeStyle;rounded=0;orthogonalLoop=1;jettySize=auto;html=1;entryX=0;entryY=0.75;entryDx=0;entryDy=0;" edge="1" parent="1" source="Y3QIFnwMC54fJHDvTTTl-8" target="Y3QIFnwMC54fJHDvTTTl-12">
          <mxGeometry relative="1" as="geometry">
            <Array as="points">
              <mxPoint x="420" y="430" />
            </Array>
          </mxGeometry>
        </mxCell>
        <mxCell id="Y3QIFnwMC54fJHDvTTTl-15" style="edgeStyle=orthogonalEdgeStyle;rounded=0;orthogonalLoop=1;jettySize=auto;html=1;" edge="1" parent="1" source="Y3QIFnwMC54fJHDvTTTl-8" target="Y3QIFnwMC54fJHDvTTTl-10">
          <mxGeometry relative="1" as="geometry">
            <Array as="points">
              <mxPoint x="420" y="60" />
            </Array>
          </mxGeometry>
        </mxCell>
        <mxCell id="Y3QIFnwMC54fJHDvTTTl-8" value="tiene" style="shape=rhombus;perimeter=rhombusPerimeter;whiteSpace=wrap;html=1;align=center;" vertex="1" parent="1">
          <mxGeometry x="360" y="190" width="120" height="60" as="geometry" />
        </mxCell>
        <mxCell id="Y3QIFnwMC54fJHDvTTTl-20" style="edgeStyle=orthogonalEdgeStyle;rounded=0;orthogonalLoop=1;jettySize=auto;html=1;entryX=0.5;entryY=1;entryDx=0;entryDy=0;endArrow=none;endFill=0;" edge="1" parent="1" source="Y3QIFnwMC54fJHDvTTTl-10" target="Y3QIFnwMC54fJHDvTTTl-16">
          <mxGeometry relative="1" as="geometry">
            <Array as="points">
              <mxPoint x="570" y="10" />
              <mxPoint x="370" y="10" />
            </Array>
          </mxGeometry>
        </mxCell>
        <mxCell id="Y3QIFnwMC54fJHDvTTTl-21" style="edgeStyle=orthogonalEdgeStyle;rounded=0;orthogonalLoop=1;jettySize=auto;html=1;entryX=0.5;entryY=1;entryDx=0;entryDy=0;endArrow=none;endFill=0;" edge="1" parent="1" source="Y3QIFnwMC54fJHDvTTTl-10" target="Y3QIFnwMC54fJHDvTTTl-17">
          <mxGeometry relative="1" as="geometry">
            <Array as="points">
              <mxPoint x="570" y="10" />
              <mxPoint x="480" y="10" />
            </Array>
          </mxGeometry>
        </mxCell>
        <mxCell id="Y3QIFnwMC54fJHDvTTTl-22" style="edgeStyle=orthogonalEdgeStyle;rounded=0;orthogonalLoop=1;jettySize=auto;html=1;entryX=0.5;entryY=1;entryDx=0;entryDy=0;endArrow=none;endFill=0;" edge="1" parent="1" source="Y3QIFnwMC54fJHDvTTTl-10" target="Y3QIFnwMC54fJHDvTTTl-18">
          <mxGeometry relative="1" as="geometry">
            <Array as="points">
              <mxPoint x="570" y="10" />
              <mxPoint x="590" y="10" />
            </Array>
          </mxGeometry>
        </mxCell>
        <mxCell id="Y3QIFnwMC54fJHDvTTTl-23" style="edgeStyle=orthogonalEdgeStyle;rounded=0;orthogonalLoop=1;jettySize=auto;html=1;entryX=0.5;entryY=1;entryDx=0;entryDy=0;endArrow=none;endFill=0;" edge="1" parent="1" source="Y3QIFnwMC54fJHDvTTTl-10" target="Y3QIFnwMC54fJHDvTTTl-19">
          <mxGeometry relative="1" as="geometry">
            <Array as="points">
              <mxPoint x="570" y="10" />
              <mxPoint x="700" y="10" />
            </Array>
          </mxGeometry>
        </mxCell>
        <mxCell id="Y3QIFnwMC54fJHDvTTTl-10" value="producto" style="whiteSpace=wrap;html=1;align=center;" vertex="1" parent="1">
          <mxGeometry x="520" y="40" width="100" height="40" as="geometry" />
        </mxCell>
        <mxCell id="Y3QIFnwMC54fJHDvTTTl-34" style="edgeStyle=orthogonalEdgeStyle;rounded=0;orthogonalLoop=1;jettySize=auto;html=1;entryX=0;entryY=0.5;entryDx=0;entryDy=0;endArrow=none;endFill=0;" edge="1" parent="1" source="Y3QIFnwMC54fJHDvTTTl-11" target="Y3QIFnwMC54fJHDvTTTl-32">
          <mxGeometry relative="1" as="geometry" />
        </mxCell>
        <mxCell id="Y3QIFnwMC54fJHDvTTTl-38" style="edgeStyle=orthogonalEdgeStyle;rounded=0;orthogonalLoop=1;jettySize=auto;html=1;entryX=0;entryY=0.5;entryDx=0;entryDy=0;endArrow=none;endFill=0;" edge="1" parent="1" source="Y3QIFnwMC54fJHDvTTTl-11" target="Y3QIFnwMC54fJHDvTTTl-37">
          <mxGeometry relative="1" as="geometry" />
        </mxCell>
        <mxCell id="Y3QIFnwMC54fJHDvTTTl-11" value="personal" style="whiteSpace=wrap;html=1;align=center;" vertex="1" parent="1">
          <mxGeometry x="680" y="200" width="100" height="40" as="geometry" />
        </mxCell>
        <mxCell id="Y3QIFnwMC54fJHDvTTTl-12" value="cliente" style="whiteSpace=wrap;html=1;align=center;" vertex="1" parent="1">
          <mxGeometry x="520" y="400" width="100" height="40" as="geometry" />
        </mxCell>
        <mxCell id="Y3QIFnwMC54fJHDvTTTl-16" value="precio" style="ellipse;whiteSpace=wrap;html=1;align=center;" vertex="1" parent="1">
          <mxGeometry x="320" y="-80" width="100" height="40" as="geometry" />
        </mxCell>
        <mxCell id="Y3QIFnwMC54fJHDvTTTl-17" value="ID-producto" style="ellipse;whiteSpace=wrap;html=1;align=center;fontStyle=4;" vertex="1" parent="1">
          <mxGeometry x="430" y="-80" width="100" height="40" as="geometry" />
        </mxCell>
        <mxCell id="Y3QIFnwMC54fJHDvTTTl-18" value="nombre del producto&amp;nbsp;" style="ellipse;whiteSpace=wrap;html=1;align=center;" vertex="1" parent="1">
          <mxGeometry x="540" y="-80" width="100" height="40" as="geometry" />
        </mxCell>
        <mxCell id="Y3QIFnwMC54fJHDvTTTl-19" value="caducidad" style="ellipse;whiteSpace=wrap;html=1;align=center;dashed=1;" vertex="1" parent="1">
          <mxGeometry x="650" y="-80" width="100" height="40" as="geometry" />
        </mxCell>
        <mxCell id="Y3QIFnwMC54fJHDvTTTl-31" value="horario" style="ellipse;whiteSpace=wrap;html=1;align=center;dashed=1;" vertex="1" parent="1">
          <mxGeometry x="850" y="190" width="100" height="40" as="geometry" />
        </mxCell>
        <mxCell id="Y3QIFnwMC54fJHDvTTTl-32" value="ID-trabajador" style="ellipse;whiteSpace=wrap;html=1;align=center;fontStyle=4;" vertex="1" parent="1">
          <mxGeometry x="850" y="130" width="100" height="40" as="geometry" />
        </mxCell>
        <mxCell id="Y3QIFnwMC54fJHDvTTTl-35" style="edgeStyle=orthogonalEdgeStyle;rounded=0;orthogonalLoop=1;jettySize=auto;html=1;entryX=0.05;entryY=0.675;entryDx=0;entryDy=0;entryPerimeter=0;endArrow=none;endFill=0;" edge="1" parent="1" source="Y3QIFnwMC54fJHDvTTTl-11" target="Y3QIFnwMC54fJHDvTTTl-31">
          <mxGeometry relative="1" as="geometry" />
        </mxCell>
        <mxCell id="Y3QIFnwMC54fJHDvTTTl-37" value="nombre" style="ellipse;whiteSpace=wrap;html=1;align=center;" vertex="1" parent="1">
          <mxGeometry x="850" y="250" width="100" height="40" as="geometry" />
        </mxCell>
        <mxCell id="Y3QIFnwMC54fJHDvTTTl-40" style="edgeStyle=orthogonalEdgeStyle;rounded=0;orthogonalLoop=1;jettySize=auto;html=1;entryX=1;entryY=0.5;entryDx=0;entryDy=0;endArrow=none;endFill=0;" edge="1" parent="1" source="Y3QIFnwMC54fJHDvTTTl-39" target="Y3QIFnwMC54fJHDvTTTl-11">
          <mxGeometry relative="1" as="geometry" />
        </mxCell>
        <mxCell id="Y3QIFnwMC54fJHDvTTTl-39" value="num-telefonico" style="ellipse;shape=doubleEllipse;margin=3;whiteSpace=wrap;html=1;align=center;" vertex="1" parent="1">
          <mxGeometry x="850" y="70" width="100" height="40" as="geometry" />
        </mxCell>
        <mxCell id="Y3QIFnwMC54fJHDvTTTl-45" style="edgeStyle=orthogonalEdgeStyle;rounded=0;orthogonalLoop=1;jettySize=auto;html=1;entryX=1;entryY=0.5;entryDx=0;entryDy=0;endArrow=none;endFill=0;" edge="1" parent="1" source="Y3QIFnwMC54fJHDvTTTl-41" target="Y3QIFnwMC54fJHDvTTTl-12">
          <mxGeometry relative="1" as="geometry" />
        </mxCell>
        <mxCell id="Y3QIFnwMC54fJHDvTTTl-41" value="ID-cliente" style="ellipse;whiteSpace=wrap;html=1;align=center;fontStyle=4;" vertex="1" parent="1">
          <mxGeometry x="680" y="320" width="100" height="40" as="geometry" />
        </mxCell>
        <mxCell id="Y3QIFnwMC54fJHDvTTTl-46" style="edgeStyle=orthogonalEdgeStyle;rounded=0;orthogonalLoop=1;jettySize=auto;html=1;entryX=1;entryY=0.5;entryDx=0;entryDy=0;endArrow=none;endFill=0;" edge="1" parent="1" source="Y3QIFnwMC54fJHDvTTTl-42" target="Y3QIFnwMC54fJHDvTTTl-12">
          <mxGeometry relative="1" as="geometry" />
        </mxCell>
        <mxCell id="Y3QIFnwMC54fJHDvTTTl-42" value="num.telefonico" style="ellipse;shape=doubleEllipse;margin=3;whiteSpace=wrap;html=1;align=center;" vertex="1" parent="1">
          <mxGeometry x="680" y="380" width="100" height="40" as="geometry" />
        </mxCell>
        <mxCell id="Y3QIFnwMC54fJHDvTTTl-47" style="edgeStyle=orthogonalEdgeStyle;rounded=0;orthogonalLoop=1;jettySize=auto;html=1;entryX=1;entryY=0.5;entryDx=0;entryDy=0;endArrow=none;endFill=0;" edge="1" parent="1" source="Y3QIFnwMC54fJHDvTTTl-43" target="Y3QIFnwMC54fJHDvTTTl-12">
          <mxGeometry relative="1" as="geometry" />
        </mxCell>
        <mxCell id="Y3QIFnwMC54fJHDvTTTl-43" value="nombre" style="ellipse;whiteSpace=wrap;html=1;align=center;" vertex="1" parent="1">
          <mxGeometry x="680" y="440" width="100" height="40" as="geometry" />
        </mxCell>
        <mxCell id="Y3QIFnwMC54fJHDvTTTl-48" style="edgeStyle=orthogonalEdgeStyle;rounded=0;orthogonalLoop=1;jettySize=auto;html=1;entryX=1;entryY=0.5;entryDx=0;entryDy=0;endArrow=none;endFill=0;" edge="1" parent="1" source="Y3QIFnwMC54fJHDvTTTl-44" target="Y3QIFnwMC54fJHDvTTTl-12">
          <mxGeometry relative="1" as="geometry" />
        </mxCell>
        <mxCell id="Y3QIFnwMC54fJHDvTTTl-44" value="correo electronico" style="ellipse;whiteSpace=wrap;html=1;align=center;" vertex="1" parent="1">
          <mxGeometry x="680" y="500" width="100" height="40" as="geometry" />
        </mxCell>
      </root>
    </mxGraphModel>
  </diagram>
</mxfile>
